<?xml version="1.0" standalone="no"?>
<!DOCTYPE svg PUBLIC "-//W3C//DTD SVG 20010904//EN"
 "http://www.w3.org/TR/2001/REC-SVG-20010904/DTD/svg10.dtd">
<svg version="1.0" xmlns="http://www.w3.org/2000/svg"
 width="2000.000000pt" height="2000.000000pt" viewBox="0 0 2000.000000 2000.000000"
 preserveAspectRatio="xMidYMid meet">
<metadata>
Created by potrace 1.14, written by Peter Selinger 2001-2017
</metadata>
<g transform="translate(0.000000,2000.000000) scale(0.100000,-0.100000)"
fill="#000000" stroke="none">
<path d="M14029 15951 l-29 -29 5 -124 c5 -142 -9 -224 -57 -322 -59 -120
-169 -226 -323 -314 -67 -38 -228 -107 -275 -117 -20 -5 -126 -34 -165 -45
-16 -4 -64 -14 -105 -20 -41 -7 -83 -14 -92 -16 -80 -14 -278 -18 -1123 -19
-533 0 -992 -4 -1020 -9 -264 -41 -449 -118 -615 -255 -255 -210 -414 -542
-457 -948 -4 -37 -7 -373 -7 -745 -1 -447 -4 -678 -11 -679 -5 -1 -38 -1 -72
-1 -52 0 -63 -3 -64 -16 -1 -9 -2 -177 -3 -372 l-1 -355 -583 -1 -584 -2 -21
25 c-107 125 -281 303 -392 398 -322 277 -701 476 -1094 574 -92 24 -226 51
-272 55 -41 5 -123 17 -125 19 -1 1 -4 21 -8 44 -21 154 -170 262 -371 267
-58 1 -124 -7 -240 -31 -88 -18 -171 -35 -185 -38 -14 -3 -34 -7 -45 -9 -11
-2 -101 -21 -200 -41 -189 -39 -248 -57 -318 -98 -70 -41 -144 -123 -168 -186
-24 -62 -29 -154 -9 -190 6 -13 10 -24 8 -25 -2 -2 -40 -25 -86 -52 -162 -95
-195 -119 -353 -245 -497 -400 -811 -865 -988 -1464 -23 -80 -57 -228 -66
-295 -3 -25 -10 -72 -15 -105 -5 -33 -11 -89 -15 -125 -3 -36 -8 -81 -10 -100
-2 -19 -7 -62 -10 -95 -3 -33 -8 -75 -10 -94 -3 -19 -7 -64 -10 -100 -3 -37
-7 -76 -9 -87 -2 -12 -7 -57 -11 -100 -3 -43 -8 -86 -10 -94 -2 -8 -7 -49 -10
-90 -4 -41 -8 -86 -10 -100 -2 -14 -7 -59 -10 -100 -3 -41 -8 -86 -10 -100 -2
-14 -6 -54 -10 -90 -3 -36 -7 -76 -10 -90 -2 -14 -7 -59 -10 -100 -4 -41 -8
-86 -10 -100 -2 -14 -6 -56 -10 -93 -3 -37 -8 -76 -10 -85 -1 -9 -6 -51 -9
-93 -4 -42 -9 -87 -11 -100 -2 -13 -6 -60 -10 -103 -4 -43 -8 -86 -10 -95 -1
-9 -6 -47 -9 -86 -4 -38 -9 -83 -11 -100 -2 -16 -7 -59 -10 -95 -3 -36 -7 -78
-10 -95 -2 -16 -6 -59 -10 -95 -3 -36 -8 -84 -10 -107 -11 -96 -24 -212 -30
-268 -3 -22 -8 -71 -11 -110 -4 -38 -8 -81 -9 -95 -2 -14 -6 -52 -9 -85 -4
-33 -8 -78 -11 -100 -16 -154 -22 -208 -31 -300 -3 -38 -8 -83 -11 -100 -9
-61 -11 -442 -3 -510 5 -38 12 -90 15 -115 6 -54 12 -89 26 -155 6 -27 13 -61
15 -75 11 -59 66 -236 100 -322 236 -600 678 -1020 1212 -1153 143 -36 220
-43 387 -40 144 4 168 5 245 19 147 27 359 102 470 167 8 5 22 12 30 16 44 19
217 141 295 208 349 298 589 691 730 1197 19 68 62 118 130 152 39 20 61 25
114 22 86 -3 119 -21 212 -116 142 -144 323 -261 511 -329 664 -241 1406 61
1717 699 36 73 67 157 99 265 l9 30 582 0 582 0 34 -100 c52 -154 53 -158 127
-292 43 -78 137 -198 221 -281 73 -74 249 -211 270 -212 4 0 24 -10 45 -23 20
-13 66 -35 102 -51 36 -15 74 -31 85 -36 30 -14 203 -58 255 -66 111 -16 268
-20 365 -9 83 9 226 41 293 66 32 11 68 24 82 28 34 11 164 80 231 123 75 48
173 130 244 203 66 69 102 91 163 101 l40 6 17 -48 c38 -106 119 -289 162
-367 44 -80 149 -247 162 -257 3 -3 25 -30 47 -60 23 -30 77 -93 120 -140 44
-47 99 -112 123 -145 149 -203 348 -390 550 -520 41 -26 81 -49 90 -53 9 -3
30 -15 46 -26 17 -12 30 -19 30 -17 0 1 27 -9 60 -24 102 -45 228 -84 355
-111 137 -28 384 -28 540 0 200 36 410 123 584 241 114 77 125 86 234 190 267
253 467 608 572 1011 11 45 22 90 24 100 2 10 7 39 12 64 4 25 8 47 9 50 1 3
5 30 9 60 4 30 10 73 14 95 3 22 6 137 7 255 0 186 -4 272 -20 397 -2 16 -6
57 -10 93 -6 64 -10 101 -20 190 -2 25 -7 70 -10 100 -3 30 -8 71 -10 90 -2
19 -7 64 -10 100 -3 36 -8 76 -10 90 -3 22 -10 87 -20 200 -2 19 -6 55 -9 80
-3 25 -10 95 -16 155 -6 61 -13 121 -15 135 -2 14 -7 59 -10 100 -4 41 -9 89
-11 105 -2 17 -6 57 -9 90 -3 33 -7 76 -10 95 -2 19 -7 59 -10 88 -3 28 -7 73
-10 100 -2 26 -7 72 -10 102 -3 30 -7 66 -10 80 -2 14 -7 57 -10 95 -3 39 -8
86 -10 105 -2 19 -6 62 -10 95 -3 33 -8 71 -10 85 -2 14 -6 57 -10 95 -3 39
-8 88 -10 110 -3 22 -7 63 -10 90 -3 28 -7 68 -10 90 -2 22 -9 90 -15 150 -6
61 -13 128 -16 150 -2 22 -9 85 -15 140 -5 55 -12 116 -14 135 -2 19 -7 64
-10 100 -3 36 -7 76 -10 90 -2 14 -7 54 -10 90 -60 641 -404 1313 -898 1755
-43 39 -84 75 -90 81 -74 66 -311 228 -426 291 -119 65 -113 59 -96 94 36 68
19 179 -39 263 -51 75 -148 143 -246 175 -29 9 -303 69 -400 87 -14 2 -36 7
-50 9 -14 3 -38 8 -53 11 -16 2 -81 16 -145 30 -64 14 -151 27 -192 28 -173 6
-319 -64 -379 -183 -20 -38 -25 -57 -30 -108 -1 -8 -27 -12 -83 -12 -46 -1
-108 -3 -138 -6 -66 -6 -183 -18 -190 -20 -3 0 -26 -4 -51 -8 -81 -13 -102
-18 -189 -38 -80 -19 -332 -99 -375 -118 -310 -142 -476 -240 -675 -399 -116
-93 -322 -299 -409 -409 l-65 -81 -590 0 -591 0 -5 372 -5 371 -60 2 c-33 0
-66 2 -73 2 -11 1 -13 130 -9 714 2 391 6 723 10 737 3 14 11 54 17 90 15 90
65 251 106 338 144 313 428 519 769 558 22 3 51 7 65 10 14 2 174 4 355 4
1193 -4 1625 0 1718 16 20 3 47 7 60 9 12 1 50 8 84 14 35 7 74 14 87 17 13 2
64 15 112 29 577 165 871 485 858 932 -4 130 -17 171 -59 189 -50 21 -73 17
-106 -15z"/>
</g>
</svg>
